<mxfile host="app.diagrams.net" modified="2023-11-25T07:11:25.102Z" agent="Mozilla/5.0 (Windows NT 10.0; Win64; x64) AppleWebKit/537.36 (KHTML, like Gecko) Chrome/116.0.5845.686 YaBrowser/23.9.5.686 Yowser/2.5 Safari/537.36" etag="uG6y9Gk6kHB0g78v4PqR" version="22.1.4" type="device">
  <diagram id="dggxUXRvATQKj4Hq4BfM" name="Страница 1">
    <mxGraphModel dx="987" dy="534" grid="1" gridSize="10" guides="1" tooltips="1" connect="1" arrows="1" fold="1" page="1" pageScale="1" pageWidth="1169" pageHeight="827" math="0" shadow="0">
      <root>
        <mxCell id="0" />
        <mxCell id="1" parent="0" />
        <UserObject label="&lt;div style=&quot;display: flex; justify-content: center; text-align: center; align-items: baseline; font-size: 0; line-height: 1.25;margin-top: -2px;&quot;&gt;&lt;span&gt;&lt;span style=&quot;font-size:13px;color:#000000;&quot;&gt;&lt;font style=&quot;vertical-align: inherit;&quot;&gt;&lt;font style=&quot;vertical-align: inherit;&quot;&gt;&amp;lt;&amp;lt;устройство&amp;gt;&amp;gt;&lt;/font&gt;&lt;/font&gt;&lt;br&gt;&lt;/span&gt;&lt;/span&gt;&lt;/div&gt;&lt;div style=&quot;display: flex; justify-content: center; text-align: center; align-items: baseline; font-size: 0; line-height: 1.25;margin-top: -2px;&quot;&gt;&lt;span&gt;&lt;span style=&quot;font-size:13px;color:#000000;&quot;&gt;&lt;font style=&quot;vertical-align: inherit;&quot;&gt;&lt;font style=&quot;vertical-align: inherit;&quot;&gt;ПК/ноутбук&lt;/font&gt;&lt;/font&gt;&lt;/span&gt;&lt;/span&gt;&lt;/div&gt;" lucidchartObjectId="uxBaqhVjYVUh" id="HtUEd3qQX_06tWcAb8EQ-2">
          <mxCell style="html=1;overflow=block;blockSpacing=1;whiteSpace=wrap;shape=cube;size=20;flipH=1;verticalAlign=top;spacingTop=22;spacingLeft=5;fontSize=13;align=left;spacing=0;strokeOpacity=100;rounded=1;absoluteArcSize=1;arcSize=9;strokeWidth=2.3;" parent="1" vertex="1">
            <mxGeometry x="50" y="282" width="380" height="260" as="geometry" />
          </mxCell>
        </UserObject>
        <UserObject label="&lt;div style=&quot;display: flex; justify-content: center; text-align: center; align-items: baseline; font-size: 0; line-height: 1.25;margin-top: -2px;&quot;&gt;&lt;span&gt;&lt;span style=&quot;font-size:13px;color:#000000;&quot;&gt;&amp;lt;&amp;lt;устройство&amp;gt;&amp;gt;&lt;br&gt;&lt;/span&gt;&lt;/span&gt;&lt;/div&gt;&lt;div style=&quot;display: flex; justify-content: center; text-align: center; align-items: baseline; font-size: 0; line-height: 1.25;margin-top: -2px;&quot;&gt;&lt;span&gt;&lt;span style=&quot;font-size:13px;color:#000000;&quot;&gt;Cервер приложений&lt;/span&gt;&lt;/span&gt;&lt;/div&gt;" lucidchartObjectId="lyBaFYJcU0iu" id="HtUEd3qQX_06tWcAb8EQ-3">
          <mxCell style="html=1;overflow=block;blockSpacing=1;whiteSpace=wrap;shape=cube;size=20;flipH=1;verticalAlign=top;spacingTop=22;spacingLeft=5;fontSize=13;align=left;spacing=0;strokeOpacity=100;rounded=1;absoluteArcSize=1;arcSize=9;strokeWidth=2.3;" parent="1" vertex="1">
            <mxGeometry x="568" y="200" width="302" height="408" as="geometry" />
          </mxCell>
        </UserObject>
        <UserObject label="&lt;div style=&quot;display: flex; justify-content: center; text-align: center; align-items: baseline; font-size: 0; line-height: 1.25;margin-top: -2px;&quot;&gt;&lt;span&gt;&lt;span style=&quot;font-size:10.2px;color:#000000;&quot;&gt;&amp;lt;&amp;lt;среда выполнения&amp;gt;&amp;gt;&lt;br&gt;&lt;/span&gt;&lt;/span&gt;&lt;/div&gt;&lt;div style=&quot;display: flex; justify-content: center; text-align: center; align-items: baseline; font-size: 0; line-height: 1.25;margin-top: -2px;&quot;&gt;&lt;span&gt;&lt;span style=&quot;font-size:10.2px;color:#000000;&quot;&gt;Браузер&lt;/span&gt;&lt;span style=&quot;font-size:13px;color:#000000;&quot;&gt;&lt;br&gt;&lt;/span&gt;&lt;/span&gt;&lt;/div&gt;&lt;div style=&quot;display: flex; justify-content: center; text-align: center; align-items: baseline; font-size: 0; line-height: 1.25;margin-top: -2px;&quot;&gt;&lt;span&gt;&lt;/span&gt;&lt;/div&gt;" lucidchartObjectId="JRBa65diK8Yj" id="HtUEd3qQX_06tWcAb8EQ-4">
          <mxCell style="html=1;overflow=block;blockSpacing=1;whiteSpace=wrap;shape=cube;size=20;flipH=1;verticalAlign=top;spacingTop=22;spacingLeft=5;fontSize=13;align=left;spacing=0;strokeOpacity=100;rounded=1;absoluteArcSize=1;arcSize=9;strokeWidth=2.3;" parent="1" vertex="1">
            <mxGeometry x="110" y="360" width="253" height="148" as="geometry" />
          </mxCell>
        </UserObject>
        <UserObject label="&lt;div style=&quot;display: flex; justify-content: center; text-align: center; align-items: baseline; font-size: 0; line-height: 1.25;margin-top: -2px;&quot;&gt;&lt;span&gt;&lt;span style=&quot;font-size:10.2px;color:#000000;&quot;&gt;&amp;lt;&amp;lt;среда выполнения&amp;gt;&amp;gt;&lt;br&gt;&lt;/span&gt;&lt;/span&gt;&lt;/div&gt;&lt;div style=&quot;display: flex; justify-content: center; text-align: center; align-items: baseline; font-size: 0; line-height: 1.25;margin-top: -2px;&quot;&gt;&lt;span&gt;&lt;span style=&quot;font-size:10.2px;color:#000000;&quot;&gt;Node.js V18.0&lt;/span&gt;&lt;span style=&quot;font-size:13px;color:#000000;&quot;&gt;&lt;br&gt;&lt;/span&gt;&lt;/span&gt;&lt;/div&gt;&lt;div style=&quot;display: flex; justify-content: center; text-align: center; align-items: baseline; font-size: 0; line-height: 1.25;margin-top: -2px;&quot;&gt;&lt;span&gt;&lt;/span&gt;&lt;/div&gt;" lucidchartObjectId="-RBavS0A2oWB" id="HtUEd3qQX_06tWcAb8EQ-5">
          <mxCell style="html=1;overflow=block;blockSpacing=1;whiteSpace=wrap;shape=cube;size=20;flipH=1;verticalAlign=top;spacingTop=22;spacingLeft=5;fontSize=13;align=left;spacing=0;strokeOpacity=100;rounded=1;absoluteArcSize=1;arcSize=9;strokeWidth=2.3;" parent="1" vertex="1">
            <mxGeometry x="598" y="424" width="220" height="151" as="geometry" />
          </mxCell>
        </UserObject>
        <UserObject label="" lucidchartObjectId="60BafBpQ9DIT" id="HtUEd3qQX_06tWcAb8EQ-6">
          <mxCell style="html=1;overflow=block;blockSpacing=1;whiteSpace=wrap;fontSize=13;align=left;spacing=3.8;strokeColor=#383838;strokeOpacity=100;rounded=1;absoluteArcSize=1;arcSize=9;strokeWidth=2.3;" parent="1" vertex="1">
            <mxGeometry x="150" y="412" width="157" height="73" as="geometry" />
          </mxCell>
        </UserObject>
        <UserObject label="" lucidchartObjectId="C3Ba2uPoE1Os" id="HtUEd3qQX_06tWcAb8EQ-7">
          <mxCell style="html=1;overflow=block;blockSpacing=1;whiteSpace=wrap;fontSize=16.7;fontColor=#333333;spacing=3.8;strokeColor=#5e5e5e;strokeOpacity=100;rounded=1;absoluteArcSize=1;arcSize=9;strokeWidth=2.3;" parent="1" vertex="1">
            <mxGeometry x="276" y="421" width="23" height="25" as="geometry" />
          </mxCell>
        </UserObject>
        <UserObject label="" lucidchartObjectId="C3Bac~0E1qL2" id="HtUEd3qQX_06tWcAb8EQ-8">
          <mxCell style="html=1;overflow=block;blockSpacing=1;whiteSpace=wrap;fontSize=16.7;fontColor=#333333;spacing=3.8;strokeColor=#5e5e5e;strokeOpacity=100;rounded=1;absoluteArcSize=1;arcSize=9;strokeWidth=2.3;" parent="1" vertex="1">
            <mxGeometry x="268" y="436" width="15" height="6" as="geometry" />
          </mxCell>
        </UserObject>
        <UserObject label="" lucidchartObjectId="C3BaML4gWk6M" id="HtUEd3qQX_06tWcAb8EQ-9">
          <mxCell style="html=1;overflow=block;blockSpacing=1;whiteSpace=wrap;fontSize=16.7;fontColor=#333333;spacing=3.8;strokeColor=#5e5e5e;strokeOpacity=100;rounded=1;absoluteArcSize=1;arcSize=9;strokeWidth=2.3;" parent="1" vertex="1">
            <mxGeometry x="268" y="426" width="15" height="6" as="geometry" />
          </mxCell>
        </UserObject>
        <UserObject label="" lucidchartObjectId="G4BaCdDSXZV6" id="HtUEd3qQX_06tWcAb8EQ-10">
          <mxCell style="html=1;overflow=block;blockSpacing=1;whiteSpace=wrap;fontSize=13;spacing=3.8;strokeColor=#5e5e5e;strokeOpacity=100;rounded=1;absoluteArcSize=1;arcSize=9;strokeWidth=2.3;" parent="1" vertex="1">
            <mxGeometry x="637.5" y="480.5" width="141" height="73" as="geometry" />
          </mxCell>
        </UserObject>
        <UserObject label="&amp;lt;&amp;lt;компонент&amp;gt;&amp;gt;&lt;br&gt;React.js v18.2" lucidchartObjectId="b7BaSA8hz8VO" id="HtUEd3qQX_06tWcAb8EQ-11">
          <mxCell style="html=1;overflow=block;blockSpacing=1;whiteSpace=wrap;fontSize=10;fontColor=#333333;spacing=3.8;strokeOpacity=0;fillOpacity=0;rounded=1;absoluteArcSize=1;arcSize=9;fillColor=#ffffff;strokeWidth=2.3;" parent="1" vertex="1">
            <mxGeometry x="176" y="432.5" width="105" height="32" as="geometry" />
          </mxCell>
        </UserObject>
        <UserObject label="&amp;lt;&amp;lt;компонент&amp;gt;&amp;gt;&#xa;Контроллер" lucidchartObjectId="L7BaCSBuIGva" id="HtUEd3qQX_06tWcAb8EQ-12">
          <mxCell style="html=1;overflow=block;blockSpacing=1;whiteSpace=wrap;fontSize=10;fontColor=#333333;spacing=3.8;strokeOpacity=0;fillOpacity=0;rounded=1;absoluteArcSize=1;arcSize=9;fillColor=#ffffff;strokeWidth=2.3;" parent="1" vertex="1">
            <mxGeometry x="655.5" y="508" width="105" height="32" as="geometry" />
          </mxCell>
        </UserObject>
        <UserObject label="" lucidchartObjectId="J8BawhYmK9zv" id="HtUEd3qQX_06tWcAb8EQ-13">
          <mxCell style="html=1;overflow=block;blockSpacing=1;whiteSpace=wrap;fontSize=16.7;fontColor=#333333;spacing=3.8;strokeColor=#5e5e5e;strokeOpacity=100;rounded=1;absoluteArcSize=1;arcSize=9;strokeWidth=2.3;" parent="1" vertex="1">
            <mxGeometry x="740" y="489" width="23" height="25" as="geometry" />
          </mxCell>
        </UserObject>
        <UserObject label="" lucidchartObjectId="J8Ba6J4dRPhQ" id="HtUEd3qQX_06tWcAb8EQ-14">
          <mxCell style="html=1;overflow=block;blockSpacing=1;whiteSpace=wrap;fontSize=16.7;fontColor=#333333;spacing=3.8;strokeColor=#5e5e5e;strokeOpacity=100;rounded=1;absoluteArcSize=1;arcSize=9;strokeWidth=2.3;" parent="1" vertex="1">
            <mxGeometry x="731" y="504" width="15" height="6" as="geometry" />
          </mxCell>
        </UserObject>
        <UserObject label="" lucidchartObjectId="J8BaycdLrA4c" id="HtUEd3qQX_06tWcAb8EQ-15">
          <mxCell style="html=1;overflow=block;blockSpacing=1;whiteSpace=wrap;fontSize=16.7;fontColor=#333333;spacing=3.8;strokeColor=#5e5e5e;strokeOpacity=100;rounded=1;absoluteArcSize=1;arcSize=9;strokeWidth=2.3;" parent="1" vertex="1">
            <mxGeometry x="731" y="494" width="15" height="6" as="geometry" />
          </mxCell>
        </UserObject>
        <UserObject label="" lucidchartObjectId="B-Baz7nixPeT" id="HtUEd3qQX_06tWcAb8EQ-16">
          <mxCell style="html=1;jettySize=18;whiteSpace=wrap;overflow=block;blockSpacing=1;fontSize=13;strokeColor=#5E5E5E;strokeWidth=1.5;rounded=1;arcSize=12;edgeStyle=orthogonalEdgeStyle;startArrow=none;endArrow=none;exitX=-0.0029999999999998916;exitY=0.5;exitPerimeter=0;entryX=1.003;entryY=0.518;entryPerimeter=0;" parent="1" source="HtUEd3qQX_06tWcAb8EQ-2" target="HtUEd3qQX_06tWcAb8EQ-3" edge="1">
            <mxGeometry width="100" height="100" relative="1" as="geometry">
              <Array as="points" />
            </mxGeometry>
          </mxCell>
        </UserObject>
        <UserObject label="протокол&#xa;HTTPS" lucidchartObjectId="P-BaxohliBUg" id="HtUEd3qQX_06tWcAb8EQ-17">
          <mxCell style="html=1;overflow=block;blockSpacing=1;whiteSpace=wrap;fontSize=11.7;fontColor=#333333;spacing=3.8;strokeOpacity=0;fillOpacity=0;rounded=1;absoluteArcSize=1;arcSize=9;fillColor=#ffffff;strokeWidth=2.3;" parent="1" vertex="1">
            <mxGeometry x="405" y="405" width="180" height="48" as="geometry" />
          </mxCell>
        </UserObject>
        <mxCell id="HtUEd3qQX_06tWcAb8EQ-18" value="OS: Windows 10" style="text;strokeColor=none;fillColor=none;align=left;verticalAlign=middle;spacingLeft=4;spacingRight=4;overflow=hidden;points=[[0,0.5],[1,0.5]];portConstraint=eastwest;rotatable=0;" parent="1" vertex="1">
          <mxGeometry x="578" y="575" width="101" height="30" as="geometry" />
        </mxCell>
        <mxCell id="HtUEd3qQX_06tWcAb8EQ-19" value="&lt;br&gt;&lt;div style=&quot;display: flex; justify-content: center; text-align: center; align-items: baseline; font-size: 0px; line-height: 1.25; margin-top: -2px;&quot;&gt;&lt;span&gt;&lt;span style=&quot;font-size: 10.2px; color: rgb(0, 0, 0);&quot;&gt;&lt;font style=&quot;vertical-align: inherit;&quot;&gt;&lt;font style=&quot;vertical-align: inherit;&quot;&gt;&amp;lt;&amp;lt;среда выполнения&amp;gt;&amp;gt;&lt;/font&gt;&lt;/font&gt;&lt;br&gt;&lt;/span&gt;&lt;/span&gt;&lt;/div&gt;&lt;div style=&quot;display: flex; justify-content: center; text-align: center; align-items: baseline; font-size: 0px; line-height: 1.25; margin-top: -2px;&quot;&gt;&lt;span style=&quot;color: rgb(0, 0, 0); font-family: Helvetica; font-size: 0px; font-style: normal; font-variant-ligatures: normal; font-variant-caps: normal; font-weight: 400; letter-spacing: normal; orphans: 2; text-align: center; text-indent: 0px; text-transform: none; widows: 2; word-spacing: 0px; -webkit-text-stroke-width: 0px; background-color: rgb(255, 255, 255); text-decoration-thickness: initial; text-decoration-style: initial; text-decoration-color: initial;&quot;&gt;&lt;span style=&quot;font-size: 10.2px; color: rgb(0, 0, 0);&quot;&gt;&lt;font style=&quot;vertical-align: inherit;&quot;&gt;&lt;font style=&quot;vertical-align: inherit;&quot;&gt;MS SQL v18.8&lt;/font&gt;&lt;/font&gt;&lt;/span&gt;&lt;/span&gt;&lt;br class=&quot;Apple-interchange-newline&quot;&gt;&lt;br&gt;&lt;br&gt;&lt;/div&gt;" style="shape=cylinder3;whiteSpace=wrap;html=1;boundedLbl=1;backgroundOutline=1;size=15;strokeWidth=2;" parent="1" vertex="1">
          <mxGeometry x="651.25" y="282" width="135.5" height="118" as="geometry" />
        </mxCell>
      </root>
    </mxGraphModel>
  </diagram>
</mxfile>
